HIERARCHY
ROOT Hips
{
	OFFSET 0.000000 83.214638 0.000000
	CHANNELS 6 Xposition Yposition Zposition Xrotation Yrotation Zrotation
	JOINT Pelvis
	{
		OFFSET 0.000000 0.000000 0.000000
		CHANNELS 3 Xrotation Yrotation Zrotation
		JOINT LeftUpLeg
		{
			OFFSET 8.479700 -4.795502 -0.379100
			CHANNELS 3 Xrotation Yrotation Zrotation
			JOINT LeftLeg
			{
				OFFSET 0.024144 -32.555107 0.112900
				CHANNELS 3 Xrotation Yrotation Zrotation
				JOINT LeftFoot
				{
					OFFSET -0.024144 -32.638630 -3.012600
					CHANNELS 3 Xrotation Yrotation Zrotation
					JOINT LeftToeBase
					{
						OFFSET 0.970200 -13.225400 11.864200
						CHANNELS 3 Xrotation Yrotation Zrotation
						End Site
						{
							OFFSET 0.000000 12.319262 0.000000
						}
					}
					JOINT LFootTongue
					{
						OFFSET 1.142400 -1.059800 6.665200
						CHANNELS 3 Xrotation Yrotation Zrotation
						End Site
						{
							OFFSET 0.000000 12.319262 0.000000
						}
					}
				}
				JOINT LeftPantLeg
				{
					OFFSET 0.918482 -16.533964 -2.284700
					CHANNELS 3 Xrotation Yrotation Zrotation
					End Site
					{
						OFFSET 0.350399 24.744368 0.000000
					}
				}
			}
		}
		JOINT RightUpLeg
		{
			OFFSET -8.479700 -4.795502 -0.379100
			CHANNELS 3 Xrotation Yrotation Zrotation
			JOINT RightLeg
			{
				OFFSET -0.023144 -32.555092 0.112900
				CHANNELS 3 Xrotation Yrotation Zrotation
				JOINT RightFoot
				{
					OFFSET 0.023144 -32.638641 -3.012700
					CHANNELS 3 Xrotation Yrotation Zrotation
					JOINT RightToeBase
					{
						OFFSET -0.970200 -13.225400 11.864200
						CHANNELS 3 Xrotation Yrotation Zrotation
						End Site
						{
							OFFSET 0.000000 12.319244 0.000000
						}
					}
					JOINT RFootTongue
					{
						OFFSET -1.142200 -1.059800 6.665200
						CHANNELS 3 Xrotation Yrotation Zrotation
						End Site
						{
							OFFSET 0.000000 12.319243 0.000000
						}
					}
				}
				JOINT RightPantLeg
				{
					OFFSET -0.919482 -16.533978 -2.284800
					CHANNELS 3 Xrotation Yrotation Zrotation
					End Site
					{
						OFFSET -0.350400 24.744419 0.000000
					}
				}
			}
		}
	}
	JOINT Spine
	{
		OFFSET 0.000000 7.722000 1.166200
		CHANNELS 3 Xrotation Yrotation Zrotation
		JOINT Spine1
		{
			OFFSET 0.000000 12.024101 0.248800
			CHANNELS 3 Xrotation Yrotation Zrotation
			JOINT Spine2
			{
				OFFSET 0.000000 11.502998 -0.491200
				CHANNELS 3 Xrotation Yrotation Zrotation
				JOINT Neck
				{
					OFFSET 0.000000 18.430702 -3.123100
					CHANNELS 3 Xrotation Yrotation Zrotation
					JOINT Head
					{
						OFFSET 0.000000 9.051102 1.034000
						CHANNELS 3 Xrotation Yrotation Zrotation
						JOINT HairB
						{
							OFFSET 0.208400 24.786102 24.822300
							CHANNELS 3 Xrotation Yrotation Zrotation
							End Site
							{
								OFFSET 0.000000 32.263779 0.000000
							}
						}
						JOINT HairA
						{
							OFFSET -7.081100 24.428299 23.196600
							CHANNELS 3 Xrotation Yrotation Zrotation
							End Site
							{
								OFFSET 0.000000 32.263779 0.000000
							}
						}
						JOINT Hat
						{
							OFFSET 16.728800 15.048294 -15.439601
							CHANNELS 3 Xrotation Yrotation Zrotation
							End Site
							{
								OFFSET 0.000000 32.263779 0.000000
							}
						}
					}
				}
				JOINT LeftShoulder
				{
					OFFSET 6.197800 13.665199 -4.064700
					CHANNELS 3 Xrotation Yrotation Zrotation
					JOINT LeftArm
					{
						OFFSET 7.778100 -0.187103 -1.709300
						CHANNELS 3 Xrotation Yrotation Zrotation
						JOINT LeftForeArm
						{
							OFFSET 22.049376 0.000000 0.000000
							CHANNELS 3 Xrotation Yrotation Zrotation
							JOINT LeftHand
							{
								OFFSET 23.009392 0.000000 0.000000
								CHANNELS 3 Xrotation Yrotation Zrotation
								JOINT LeftHandThumb1
								{
									OFFSET 3.507191 -2.063065 3.133727
									CHANNELS 3 Xrotation Yrotation Zrotation
									JOINT LeftHandThumb2
									{
										OFFSET 3.101337 -1.790558 1.790558
										CHANNELS 3 Xrotation Yrotation Zrotation
										JOINT LeftHandThumb3
										{
											OFFSET 3.058640 -1.765907 1.765906
											CHANNELS 3 Xrotation Yrotation Zrotation
											End Site
											{
												OFFSET -0.415260 3.926476 -0.049563
											}
										}
									}
								}
								JOINT LeftHandIndex1
								{
									OFFSET 11.334419 -0.901459 3.706815
									CHANNELS 3 Xrotation Yrotation Zrotation
									JOINT LeftHandIndex2
									{
										OFFSET 3.283112 0.000000 0.000000
										CHANNELS 3 Xrotation Yrotation Zrotation
										JOINT LeftHandIndex3
										{
											OFFSET 3.323853 0.000000 0.000000
											CHANNELS 3 Xrotation Yrotation Zrotation
											End Site
											{
												OFFSET -1.135597 3.097809 0.402452
											}
										}
									}
								}
								JOINT LeftHandMiddle1
								{
									OFFSET 11.335861 0.000000 0.000000
									CHANNELS 3 Xrotation Yrotation Zrotation
									JOINT LeftHandMiddle2
									{
										OFFSET 3.410492 0.000000 0.000000
										CHANNELS 3 Xrotation Yrotation Zrotation
										JOINT LeftHandMiddle3
										{
											OFFSET 3.312172 0.000000 0.000000
											CHANNELS 3 Xrotation Yrotation Zrotation
											End Site
											{
												OFFSET -1.150200 3.080154 0.400270
											}
										}
									}
								}
								JOINT LeftHandRing1
								{
									OFFSET 11.514786 -0.013176 -3.003090
									CHANNELS 3 Xrotation Yrotation Zrotation
									JOINT LeftHandRing2
									{
										OFFSET 3.053307 0.000000 0.000000
										CHANNELS 3 Xrotation Yrotation Zrotation
										JOINT LeftHandRing3
										{
											OFFSET 3.295807 0.000000 0.000000
											CHANNELS 3 Xrotation Yrotation Zrotation
											End Site
											{
												OFFSET -1.281006 3.013344 0.375733
											}
										}
									}
								}
								JOINT LeftHandPinky1
								{
									OFFSET 10.518692 -0.960396 -5.730441
									CHANNELS 3 Xrotation Yrotation Zrotation
									JOINT LeftHandPinky2
									{
										OFFSET 2.861649 0.000000 0.000000
										CHANNELS 3 Xrotation Yrotation Zrotation
										JOINT LeftHandPinky3
										{
											OFFSET 2.863380 0.000000 0.000000
											CHANNELS 3 Xrotation Yrotation Zrotation
											End Site
											{
												OFFSET -0.843597 2.711159 0.369971
											}
										}
									}
								}
							}
							JOINT LSleeve
							{
								OFFSET 6.676277 -0.344902 -1.011730
								CHANNELS 3 Xrotation Yrotation Zrotation
								End Site
								{
									OFFSET 0.000000 14.885353 0.000000
								}
							}
						}
					}
				}
				JOINT RightShoulder
				{
					OFFSET -6.197800 13.665199 -4.064700
					CHANNELS 3 Xrotation Yrotation Zrotation
					JOINT RightArm
					{
						OFFSET -7.778100 -0.187103 -1.709300
						CHANNELS 3 Xrotation Yrotation Zrotation
						JOINT RightForeArm
						{
							OFFSET -22.049376 0.000000 0.000000
							CHANNELS 3 Xrotation Yrotation Zrotation
							JOINT RightHand
							{
								OFFSET -23.009392 0.000000 0.000000
								CHANNELS 3 Xrotation Yrotation Zrotation
								JOINT RightHandThumb1
								{
									OFFSET -3.507191 -2.063065 3.133727
									CHANNELS 3 Xrotation Yrotation Zrotation
									JOINT RightHandThumb2
									{
										OFFSET -3.101337 -1.790558 1.790558
										CHANNELS 3 Xrotation Yrotation Zrotation
										JOINT RightHandThumb3
										{
											OFFSET -3.058640 -1.765907 1.765906
											CHANNELS 3 Xrotation Yrotation Zrotation
											End Site
											{
												OFFSET 0.415260 3.926476 -0.049563
											}
										}
									}
								}
								JOINT RightHandIndex1
								{
									OFFSET -11.334419 -0.901459 3.706815
									CHANNELS 3 Xrotation Yrotation Zrotation
									JOINT RightHandIndex2
									{
										OFFSET -3.283112 0.000000 0.000000
										CHANNELS 3 Xrotation Yrotation Zrotation
										JOINT RightHandIndex3
										{
											OFFSET -3.323853 0.000000 0.000000
											CHANNELS 3 Xrotation Yrotation Zrotation
											End Site
											{
												OFFSET 1.135597 3.097809 0.402452
											}
										}
									}
								}
								JOINT RightHandMiddle1
								{
									OFFSET -11.335861 0.000000 0.000000
									CHANNELS 3 Xrotation Yrotation Zrotation
									JOINT RightHandMiddle2
									{
										OFFSET -3.410492 0.000000 0.000000
										CHANNELS 3 Xrotation Yrotation Zrotation
										JOINT RightHandMiddle3
										{
											OFFSET -3.312172 0.000000 0.000000
											CHANNELS 3 Xrotation Yrotation Zrotation
											End Site
											{
												OFFSET 1.150200 3.080154 0.400270
											}
										}
									}
								}
								JOINT RightHandRing1
								{
									OFFSET -11.514786 -0.013176 -3.003090
									CHANNELS 3 Xrotation Yrotation Zrotation
									JOINT RightHandRing2
									{
										OFFSET -3.053307 0.000000 0.000000
										CHANNELS 3 Xrotation Yrotation Zrotation
										JOINT RightHandRing3
										{
											OFFSET -3.295807 0.000000 0.000000
											CHANNELS 3 Xrotation Yrotation Zrotation
											End Site
											{
												OFFSET 1.281006 3.013344 0.375733
											}
										}
									}
								}
								JOINT RightHandPinky1
								{
									OFFSET -10.518692 -0.960396 -5.730441
									CHANNELS 3 Xrotation Yrotation Zrotation
									JOINT RightHandPinky2
									{
										OFFSET -2.861649 0.000000 0.000000
										CHANNELS 3 Xrotation Yrotation Zrotation
										JOINT RightHandPinky3
										{
											OFFSET -2.863380 0.000000 0.000000
											CHANNELS 3 Xrotation Yrotation Zrotation
											End Site
											{
												OFFSET 0.843597 2.711159 0.369971
											}
										}
									}
								}
							}
							JOINT RSleeve
							{
								OFFSET -6.676277 -0.344902 -1.011730
								CHANNELS 3 Xrotation Yrotation Zrotation
								End Site
								{
									OFFSET 0.000000 14.885353 0.000000
								}
							}
						}
					}
				}
				JOINT Backpack
				{
					OFFSET 0.000000 -2.471497 36.677502
					CHANNELS 3 Xrotation Yrotation Zrotation
					End Site
					{
						OFFSET 0.000000 20.427315 0.000000
					}
				}
				JOINT Hood
				{
					OFFSET 0.000000 18.754097 -10.431000
					CHANNELS 3 Xrotation Yrotation Zrotation
					JOINT Hood1
					{
						OFFSET 0.000000 -5.011002 -7.685901
						CHANNELS 3 Xrotation Yrotation Zrotation
						End Site
						{
							OFFSET 0.000000 9.175140 0.000000
						}
					}
				}
				JOINT LHoodieString
				{
					OFFSET 5.250500 16.397697 3.089900
					CHANNELS 3 Xrotation Yrotation Zrotation
					JOINT LHoodieString1
					{
						OFFSET 0.257700 -6.364304 3.694600
						CHANNELS 3 Xrotation Yrotation Zrotation
						JOINT LHoodieString2
						{
							OFFSET 0.000000 -9.643799 2.679100
							CHANNELS 3 Xrotation Yrotation Zrotation
							End Site
							{
								OFFSET 0.000000 10.009018 0.000000
							}
						}
					}
				}
				JOINT RHoodieString
				{
					OFFSET -5.250500 16.397697 3.089900
					CHANNELS 3 Xrotation Yrotation Zrotation
					JOINT RHoodieString1
					{
						OFFSET -0.257700 -6.364304 3.694600
						CHANNELS 3 Xrotation Yrotation Zrotation
						JOINT RHoodieString2
						{
							OFFSET 0.000000 -9.643799 2.679100
							CHANNELS 3 Xrotation Yrotation Zrotation
							End Site
							{
								OFFSET 0.000000 10.009018 0.000000
							}
						}
					}
				}
			}
			JOINT LBackpack_Strap
			{
				OFFSET 15.223200 -7.719803 -6.610900
				CHANNELS 3 Xrotation Yrotation Zrotation
				End Site
				{
					OFFSET 0.000000 16.040596 0.000000
				}
			}
			JOINT RBackpack_Strap
			{
				OFFSET -15.223000 -7.719803 -6.610900
				CHANNELS 3 Xrotation Yrotation Zrotation
				End Site
				{
					OFFSET 0.000000 16.040596 0.000000
				}
			}
		}
	}
	JOINT BoyFacialAnim_Joint
	{
		OFFSET 1.000000 -82.208099 -1.550900
		CHANNELS 3 Xrotation Yrotation Zrotation
		End Site
		{
			OFFSET 0.000000 30.012791 0.000000
		}
	}
}
MOTION
Frames: 5
Frame Time: 0.033333
2.262253 10.765327 2.498302 81.327834 1.483445 -40.776707 -0.000001 -0.000000 0.000002 -10.904458 33.081034 18.165721 23.999034 -9.747258 -9.537136 -11.644720 14.611868 20.313406 -0.000000 -0.000003 0.000001 -0.000000 -0.000003 -0.000000 -0.000001 -0.000003 -0.000003 -43.445942 -36.555131 -50.317580 32.849446 -4.766019 -3.191815 -11.915082 3.200666 14.232584 -0.000002 0.000000 -0.000000 -0.000002 0.000000 -0.000000 -0.000002 -0.000001 -0.000000 5.358434 -3.306950 -0.624853 -4.986928 -5.037186 0.551788 -4.528777 -5.226371 -0.110894 -30.603349 -2.235456 17.680870 -6.559411 25.852435 -5.658375 -0.000001 0.000000 0.000002 -0.000001 0.000000 0.000002 -0.000001 0.000000 0.000002 -31.455716 -38.669679 30.481710 -77.390387 -10.369364 -40.669200 -0.000002 -51.666846 0.000017 -118.473224 15.071586 26.524194 4.406044 8.634507 2.850572 19.473182 -1.474922 7.636927 -0.000000 0.000001 0.000002 -0.072819 4.029603 -35.295064 2.800277 4.995115 -58.528765 0.000000 0.000000 -0.000002 1.259144 6.096310 -50.211856 3.248648 5.242267 -63.551324 0.000002 -0.000000 -0.000001 0.840960 6.095193 -58.121017 3.999655 5.551400 -71.523501 0.000000 0.000001 -0.000002 -6.920187 3.771337 -69.384729 3.164686 5.199850 -62.628887 0.000000 0.000000 -0.000000 -0.000000 -0.000003 0.000001 -19.888691 18.025697 17.058293 -57.443332 51.338253 42.215528 -0.000002 108.887620 0.000002 -42.653637 -8.969622 -54.086619 8.377131 -4.904137 11.021996 21.620201 -18.183898 -18.379213 0.000003 0.000000 -0.000001 -1.094471 2.495792 12.458430 0.762540 -2.555647 33.223567 -0.000000 -0.000001 0.000002 3.374474 -7.152173 51.736825 6.279958 -4.365885 110.412924 0.000000 0.000001 -0.000002 -3.023625 -2.791308 56.838594 5.456379 -4.588230 99.891913 0.000001 -0.000000 0.000002 -3.614447 -3.395013 63.921480 4.002279 -4.611012 81.907458 -0.000001 0.000000 -0.000001 0.000001 0.000001 -0.000001 -0.000000 0.000000 -0.000001 -0.000000 0.000000 -0.000001 -0.000000 0.000000 -0.000001 -0.000000 0.000000 -0.000001 -0.000000 0.000000 -0.000001 -0.000000 -0.000002 0.000001 -0.000000 0.000000 -0.000001 -0.000000 0.000000 -0.000001 -0.000000 -0.000002 0.000001 -0.000000 0.000000 0.000001 -0.000000 0.000000 0.000001 -0.000001 -0.000000 0.000002 
2.391193 10.952843 2.458504 81.281006 2.004769 -42.702442 -0.000001 -0.000000 0.000003 -11.952302 33.667481 19.487887 23.605322 -9.027372 -10.138840 -12.214337 14.301535 25.048981 0.000001 0.000000 0.000001 0.000001 0.000000 -0.000001 0.000001 0.000000 -0.000001 -41.395697 -39.645300 -49.629408 29.845215 -6.695728 -1.476818 -6.419545 7.336293 16.290558 0.000001 -0.000002 0.000001 0.000001 -0.000002 0.000001 -0.000000 0.000001 0.000000 5.835282 -1.466271 -0.341325 -4.505650 -5.981540 1.125169 -3.978338 -6.220842 0.289843 -32.792647 -1.702254 16.058697 -6.181606 25.655072 -5.100567 -0.000003 0.000000 0.000002 -0.000003 0.000000 0.000002 -0.000003 0.000000 0.000002 -32.464179 -38.489380 29.683736 -79.250910 -12.366189 -42.888803 0.000026 -47.567090 0.000011 -117.385940 17.225705 23.833207 4.709216 9.560397 3.111991 19.473184 -1.474921 7.636927 -0.000002 -0.000000 0.000002 -0.212819 3.933719 -36.747125 2.942152 5.078910 -60.144597 -0.000001 -0.000000 -0.000004 0.405920 5.507065 -52.453165 3.387145 5.308620 -65.057449 0.000001 -0.000001 0.000000 -0.074381 5.736804 -61.061434 4.055028 5.569502 -72.094901 0.000001 0.000000 -0.000000 -6.565562 4.545151 -72.425229 3.299647 5.267224 -64.107841 0.000001 -0.000000 -0.000000 -0.000003 -0.000000 0.000001 -20.876750 19.499232 15.427044 -54.224722 48.923911 38.187775 0.000007 110.391204 0.000007 -42.846262 -8.113253 -56.436996 8.377129 -4.904136 11.021993 21.620201 -18.183895 -18.379209 0.000001 0.000001 -0.000001 -0.920034 1.683579 12.434980 0.748107 -2.533470 32.898282 -0.000000 -0.000001 -0.000000 3.413041 -7.186270 51.650253 6.296802 -4.359572 110.634667 0.000001 0.000001 -0.000002 -3.349041 -2.600430 57.010568 5.440856 -4.590900 99.698188 0.000001 0.000001 -0.000001 -3.996444 -3.303922 64.593871 4.058860 -4.618673 82.610537 0.000000 -0.000001 -0.000000 0.000001 -0.000003 0.000000 -0.000001 0.000001 -0.000000 -0.000001 0.000001 -0.000000 -0.000001 0.000001 -0.000000 -0.000001 0.000001 -0.000000 -0.000001 0.000001 -0.000001 -0.000001 -0.000000 0.000001 -0.000001 0.000001 -0.000000 -0.000001 0.000001 -0.000001 -0.000001 -0.000000 0.000001 0.000000 -0.000001 -0.000001 0.000000 -0.000001 -0.000001 -0.000001 -0.000000 0.000003 
2.391193 10.952843 2.458504 81.281006 2.004769 -42.702442 -0.000001 -0.000000 0.000003 -11.952302 33.667481 19.487887 23.605322 -9.027372 -10.138840 -12.214337 14.301535 25.048981 0.000001 0.000000 0.000001 0.000001 0.000000 -0.000001 0.000001 0.000000 -0.000001 -41.395697 -39.645300 -49.629408 29.845215 -6.695728 -1.476818 -6.419545 7.336293 16.290558 0.000001 -0.000002 0.000001 0.000001 -0.000002 0.000001 -0.000000 0.000001 0.000000 5.835282 -1.466271 -0.341325 -4.505650 -5.981540 1.125169 -3.978338 -6.220842 0.289843 -32.792647 -1.702254 16.058697 -6.181606 25.655072 -5.100567 -0.000003 0.000000 0.000002 -0.000003 0.000000 0.000002 -0.000003 0.000000 0.000002 -32.464179 -38.489380 29.683736 -79.250910 -12.366189 -42.888803 0.000026 -47.567090 0.000011 -117.385940 17.225705 23.833207 4.709216 9.560397 3.111991 19.473184 -1.474921 7.636927 -0.000002 -0.000000 0.000002 -0.212819 3.933719 -36.747125 2.942152 5.078910 -60.144597 -0.000001 -0.000000 -0.000004 0.405920 5.507065 -52.453165 3.387145 5.308620 -65.057449 0.000001 -0.000001 0.000000 -0.074381 5.736804 -61.061434 4.055028 5.569502 -72.094901 0.000001 0.000000 -0.000000 -6.565562 4.545151 -72.425229 3.299647 5.267224 -64.107841 0.000001 -0.000000 -0.000000 -0.000003 -0.000000 0.000001 -20.876750 19.499232 15.427044 -54.224722 48.923911 38.187775 0.000007 110.391204 0.000007 -42.846262 -8.113253 -56.436996 8.377129 -4.904136 11.021993 21.620201 -18.183895 -18.379209 0.000001 0.000001 -0.000001 -0.920034 1.683579 12.434980 0.748107 -2.533470 32.898282 -0.000000 -0.000001 -0.000000 3.413041 -7.186270 51.650253 6.296802 -4.359572 110.634667 0.000001 0.000001 -0.000002 -3.349041 -2.600430 57.010568 5.440856 -4.590900 99.698188 0.000001 0.000001 -0.000001 -3.996444 -3.303922 64.593871 4.058860 -4.618673 82.610537 0.000000 -0.000001 -0.000000 0.000001 -0.000003 0.000000 -0.000001 0.000001 -0.000000 -0.000001 0.000001 -0.000000 -0.000001 0.000001 -0.000000 -0.000001 0.000001 -0.000000 -0.000001 0.000001 -0.000001 -0.000001 -0.000000 0.000001 -0.000001 0.000001 -0.000000 -0.000001 0.000001 -0.000001 -0.000001 -0.000000 0.000001 0.000000 -0.000001 -0.000001 0.000000 -0.000001 -0.000001 -0.000001 -0.000000 0.000003 
2.391193 10.952843 2.458504 81.281006 2.004769 -42.702442 -0.000001 -0.000000 0.000003 -11.952302 33.667481 19.487887 23.605322 -9.027372 -10.138840 -12.214337 14.301535 25.048981 0.000001 0.000000 0.000001 0.000001 0.000000 -0.000001 0.000001 0.000000 -0.000001 -41.395697 -39.645300 -49.629408 29.845215 -6.695728 -1.476818 -6.419545 7.336293 16.290558 0.000001 -0.000002 0.000001 0.000001 -0.000002 0.000001 -0.000000 0.000001 0.000000 5.835282 -1.466271 -0.341325 -4.505650 -5.981540 1.125169 -3.978338 -6.220842 0.289843 -32.792647 -1.702254 16.058697 -6.181606 25.655072 -5.100567 -0.000003 0.000000 0.000002 -0.000003 0.000000 0.000002 -0.000003 0.000000 0.000002 -32.464179 -38.489380 29.683736 -79.250910 -12.366189 -42.888803 0.000026 -47.567090 0.000011 -117.385940 17.225705 23.833207 4.709216 9.560397 3.111991 19.473184 -1.474921 7.636927 -0.000002 -0.000000 0.000002 -0.212819 3.933719 -36.747125 2.942152 5.078910 -60.144597 -0.000001 -0.000000 -0.000004 0.405920 5.507065 -52.453165 3.387145 5.308620 -65.057449 0.000001 -0.000001 0.000000 -0.074381 5.736804 -61.061434 4.055028 5.569502 -72.094901 0.000001 0.000000 -0.000000 -6.565562 4.545151 -72.425229 3.299647 5.267224 -64.107841 0.000001 -0.000000 -0.000000 -0.000003 -0.000000 0.000001 -20.876750 19.499232 15.427044 -54.224722 48.923911 38.187775 0.000007 110.391204 0.000007 -42.846262 -8.113253 -56.436996 8.377129 -4.904136 11.021993 21.620201 -18.183895 -18.379209 0.000001 0.000001 -0.000001 -0.920034 1.683579 12.434980 0.748107 -2.533470 32.898282 -0.000000 -0.000001 -0.000000 3.413041 -7.186270 51.650253 6.296802 -4.359572 110.634667 0.000001 0.000001 -0.000002 -3.349041 -2.600430 57.010568 5.440856 -4.590900 99.698188 0.000001 0.000001 -0.000001 -3.996444 -3.303922 64.593871 4.058860 -4.618673 82.610537 0.000000 -0.000001 -0.000000 0.000001 -0.000003 0.000000 -0.000001 0.000001 -0.000000 -0.000001 0.000001 -0.000000 -0.000001 0.000001 -0.000000 -0.000001 0.000001 -0.000000 -0.000001 0.000001 -0.000001 -0.000001 -0.000000 0.000001 -0.000001 0.000001 -0.000000 -0.000001 0.000001 -0.000001 -0.000001 -0.000000 0.000001 0.000000 -0.000001 -0.000001 0.000000 -0.000001 -0.000001 -0.000001 -0.000000 0.000003 
2.391193 10.952843 2.458504 81.281006 2.004769 -42.702442 -0.000001 -0.000000 0.000003 -11.952302 33.667481 19.487887 23.605322 -9.027372 -10.138840 -12.214337 14.301535 25.048981 0.000001 0.000000 0.000001 0.000001 0.000000 -0.000001 0.000001 0.000000 -0.000001 -41.395697 -39.645300 -49.629408 29.845215 -6.695728 -1.476818 -6.419545 7.336293 16.290558 0.000001 -0.000002 0.000001 0.000001 -0.000002 0.000001 -0.000000 0.000001 0.000000 5.835282 -1.466271 -0.341325 -4.505650 -5.981540 1.125169 -3.978338 -6.220842 0.289843 -32.792647 -1.702254 16.058697 -6.181606 25.655072 -5.100567 -0.000003 0.000000 0.000002 -0.000003 0.000000 0.000002 -0.000003 0.000000 0.000002 -32.464179 -38.489380 29.683736 -79.250910 -12.366189 -42.888803 0.000026 -47.567090 0.000011 -117.385940 17.225705 23.833207 4.709216 9.560397 3.111991 19.473184 -1.474921 7.636927 -0.000002 -0.000000 0.000002 -0.212819 3.933719 -36.747125 2.942152 5.078910 -60.144597 -0.000001 -0.000000 -0.000004 0.405920 5.507065 -52.453165 3.387145 5.308620 -65.057449 0.000001 -0.000001 0.000000 -0.074381 5.736804 -61.061434 4.055028 5.569502 -72.094901 0.000001 0.000000 -0.000000 -6.565562 4.545151 -72.425229 3.299647 5.267224 -64.107841 0.000001 -0.000000 -0.000000 -0.000003 -0.000000 0.000001 -20.876750 19.499232 15.427044 -54.224722 48.923911 38.187775 0.000007 110.391204 0.000007 -42.846262 -8.113253 -56.436996 8.377129 -4.904136 11.021993 21.620201 -18.183895 -18.379209 0.000001 0.000001 -0.000001 -0.920034 1.683579 12.434980 0.748107 -2.533470 32.898282 -0.000000 -0.000001 -0.000000 3.413041 -7.186270 51.650253 6.296802 -4.359572 110.634667 0.000001 0.000001 -0.000002 -3.349041 -2.600430 57.010568 5.440856 -4.590900 99.698188 0.000001 0.000001 -0.000001 -3.996444 -3.303922 64.593871 4.058860 -4.618673 82.610537 0.000000 -0.000001 -0.000000 0.000001 -0.000003 0.000000 -0.000001 0.000001 -0.000000 -0.000001 0.000001 -0.000000 -0.000001 0.000001 -0.000000 -0.000001 0.000001 -0.000000 -0.000001 0.000001 -0.000001 -0.000001 -0.000000 0.000001 -0.000001 0.000001 -0.000000 -0.000001 0.000001 -0.000001 -0.000001 -0.000000 0.000001 0.000000 -0.000001 -0.000001 0.000000 -0.000001 -0.000001 -0.000001 -0.000000 0.000003 
